<svg id="Layer_1" xmlns="http://www.w3.org/2000/svg" viewBox="0 0 300 684.2">
  <style>
    .st0{fill:#1D2F5D;stroke:#FFFFFF;stroke-width:2;stroke-linejoin:round;} .st1{fill:#1D2F5D;stroke:#FFFFFF;stroke-width:2;stroke-linecap:round;stroke-linejoin:round;}
  </style>
  <path id="TG.PL" class="st0" d="M125.3 442.3l-.1 8.2 1.1 7.8-.3 7.1.4 2.7-3.5-.7-1.5 2.8-.4 4.2v3.7l-.7 1.8-1.6.9-1.9.6-1.6.8-1.2 1.3-.7 1.5-.4 1.7-.4 7.9.6 6.7 1.9 6 3.8 3.8 2.2.4 2.4-.5 4.4-1.8.8 1.2 1.9 8.9-.2 2.9-1.6 5-1.1 6.3-2.9 8.2-.4 5.3.5 6.1-.1 5.9-2.3 4.7-1.5 1-5.1 1.5-1.8.2-1.8.6 1.4 2.1 3.4 3 1.4 2.9-.3 2.3-2.5 4.8-.8 2.9.4 1.3 1.2.8 1.5 1.3 3.5 7.3.8 1.2 2.1.5 2.1 1.3 1.8 1.9 1 2.2.1 2.2-1 6.9.7 2.8 1.6 1.6 1.7 1.4 1.1 2.2 1.1.1 3.3-.1 1.1.3 1.5 1.7-.1 1.3-.8 1.3-.8 1.7v.8l6.2-1 2-.9 4.2-2.9.4-.4.8-1.1 1.2-2.3 1.1-1.6 3.5-3.7.8-1.1.6-1 .5-1.3.8-3 .5-5.3-.3-6.5.2-1.6.4-1.6.5-.9.6-.6 1.1-.7 1.2-.5 2.3-.6 19.6 1.3.6.2.2.4-.3 1 .2.5.5.3 2.1.3.6.3 1.1 1.5.5.4 1.2.5.7.4.4.5 1.4 2.7.9.9 3.8 1.5 1 .5 6.7-7.5 8.3-7 2.3-1 2.7-.7 1.5-.1 1.1.1 2.7 1 1.5.3 1.5.1.7-.1 2.1-.8 2.2-1.3.7-.8.7-1.1 2.5-4.5 1.1-1 .6-.3-.2-.2-1.4-2.3-2.3-9.7 9.1.1 2.2-.7-.1-20-.2-40.1-.1-27.5-.1-27-.1-21.6.5-37.3-1.3-11.7-.6-1.3-.7-.3-44.1-.6v1.4l-.5 1.2-.1.7-.1 5.9.2 1.5.8 1.9.1.7.1 1.7.5 2.2.1.7-.2 2.3.3 1.4.3.6 1.3 1.4.3.6.3 1.5v2.6l-.1.8-.6 2.2-.2 1.6-.1 2.6-.6 3 .1 3.3-.3 1.5-1.6 3.8-.2.6v.7l1 1.4-.3.7-3.7 2.9-3.6 1.2-10.1 2.3-2.2.1-1.9-.2-1.8-.5-1.2-.6-1-.4-5.1-1.2-1.4-.5h-1.7l-11.5 1.7h-1.7l-1.2-.4-.6.2-1.2 2-.9.7-1.2.4-9.6 1.5-1.1.5-1.9 1.4-.9.8-.7.7-1.8.9-6 .6-2.5.5v.5z"/>
  <path id="TG.MA" class="st0" d="M240.7 576.6l-.6.3-1.1 1-2.5 4.5-.7 1.1-.7.8-2.2 1.3-2.1.8-.7.1-1.5-.1-1.5-.3-2.7-1-1.1-.1-1.5.1-2.7.7-2.3 1-8.3 7-6.7 7.5-1-.5-3.8-1.5-.9-.9-1.4-2.7-.4-.5-.7-.4-1.2-.5-.5-.4-1.1-1.5-.6-.3-2.1-.3-.5-.3-.2-.5.3-1-.2-.4-.6-.2-19.6-1.3-2.3.6-1.2.5-1.1.7-.6.6-.5.9-.4 1.6-.2 1.6.3 6.5-.5 5.3-.8 3-.5 1.3-.6 1-.8 1.1-3.5 3.7-1.1 1.6-1.2 2.3-.8 1.1-.4.4-4.2 2.9-2 .9-6.2 1-.2 2.8.7 3.3 1.5 3.3 1.9 3.3 2.5 2.9 5.9 3.3 3 2.2 3.9 5.3 1.5 1.3 2.5.7h9.2l3.1 10.9 1.9 3 1 .8.9.4.9.6.9 1.2 1.6 2.8 1.3 1.7 1.7.9 9.9 1.3 1.4 2.2-.3 4.8.7-.2 1-.1 8.6-4.2 19-6.6 22.8-4.4-.8-2.9 2.5-1.5 15.4-4.1 2.5-.2-2.3-10-2.3-10.2-3.1-5.6-1-.9-2.6-1.5-.8-.7-.3-1.2.3-2.9-.1-1.4-.8-1.1-2-1.9-.3-.9-.2-1.6-.9-.4-1.2.1-1.1-.2-1-.6-1-.9-.9-1.1-.7-1.1-.4-1.4.1-1.3.2-1.1v-1.1l-1.3-2.7-1.6-1.4-.8-1.5 1-3 2.7-4.1.5-2.1-.7-3.3-.9-2.8-.5-2.3-.1-2.3.9-5.7-.3-1.9-1.1-1.5-1.8-1.3z"/>
  <path id="TG.KA" class="st0" d="M172.3 125l-2.1 3.7-1.5 1.1h-.7l-3.2-.6h-1l-1.2.1-.7.5-1.4 1.6-.6.1-.6-.2-.9-.8-.6-.3-2.8-.2-.8.3-2.2 1.4-1.9 1.5h-.7l-.5-.3-.9-1.8-.6-.4-.7-.3-3.7-.3-1.3.6-.6.6v.6l.2.7.3 1.9-.3 1.7-.6 1.4-3.5 5.5-1.2 2.6-.5 1.5-.3 1.7-.1 4.2-.1 2.6-.4.9-.6 1.1-.3 1-.4 1.8-.6 1.8v.8l.1.7 1.4 4.5.1 1.6-.1 1-.1.1-1.1-.3-1.2.4-.7-.2-1.1-.7-.7-.3-3.8.4H124l-1.8.5-1.4.5-1 .1-.7-.2-.5-.4-1-1.7-.9-.9-1.1-.7-1-1.7-.1-.7.1-.6.6-1.1.1-.5-.3-.4-.6-.2h-1.8l-1.9-.4h-1.5l-.9-.1-.7-.3-.9-.9-.6-.3-2.1-.4-.5-.4-.4-.5-.2-1.5.2-1.5v-.7l-.1-.8-.3-.7-1.3-2.2-.9-1.3-.7-.7-.1.4-1.4.4-1.8-.4-2.1.5.7 1.3-.1.9-.4.8-.2 1.3.2.9 1.4 3.2.8 2.7-.1 1.1-.8.8-1.5 1.9-1 2.1-.3 1.9.5 5.5v1.5L91 187l.2 2.5.6 1.5.9 1.1.8 1.4.6 2 .3 2.5-.4 2.4-1.2 1.7-2.2.3-2-1.3-3.2-3.8-1.7 3.9.1 4 1.9 2.9 3.7.5 4.9-1.4 2.4.5 1 2.8-.8 1.9-1.9.6-2.2-.4-1.7-1.2L89 213l-2.9.2-6-.8-.3.9-.6 3.8v.9l1.2 1.2 1.2.9 1.2.6 3.1-.7 1.7.1 1.1 1.5-.4 1.4-1.5 1.2-1.9.8-5 1.1v1.9l.8 2.2-1 1.6.5 1.8 2.2.3 2.2-.5 5.5-2.2.9-.9.5-1.2.4-2.7.6-1.1 1.8-.9 2.7-.5 4.8-.3 2.3.4 6.3 2.6.8 1.2.2 1.4-.3 1.4-.8 1.5.1.4 3.6 1.4 2.2 2.1.7 3.2-1.1 6.9-.2 4-.5 1.7-1.2 1.4-1.3.9-1 1.3-.1 2.7 1.5 4.9v2.2l-1.4 2.8-2.7 2.7-.8 1.3v2.1l-.6 4.4-2 4.2-1.2 4.2 1.6 4.2 5.8 11.1 1.5 6.6-2.6 4.3 3.3-1.1 2.5-1.1 2.4-2.5.7-.3h1.8l.8-.3.6-.5.5-1v-.8l-.3-.6-.8-.9-.1-.7.2-.7.7-.7 4.8-3.6.4-.5.9-3.7.5-.5.7-.4 2.2-.4.8-.4 1.2-1.5.5-.9.4-.4 2.6-2 .6-.7.4-.7.9-1.9.5-.4.6-.2 1.7.4h1.1l1.5-.2.7.3.4.6.7 2 3.8 1.6.8.1 1.5.1.7.1 2 .8 2.2.2 4.5-1 2.2-.3.9-.4 1.1-.7 1.7-1.6 1.6-1.9 2-2 .4-.9.1-.7-1.3-3.2-.3-1.4v-5l-.2-2.5v-1.6l.3-1.6.5-1.4.9-1.2 4.1-1.1 9-1.4h1.8l6 1.5 1.5.1 2.3-.1 16.6-5.2 2.1.1 2.2-1.3 4.7-4.3-2.3-3.9-1.8-5.4-.8-13.8-1.4-3.9-2.1 1.1-1.8-2-1.2-3.3-.4-2.8.5-1.8 2.1-3.7.7-1.7.1-1.4v-2.7l.3-1.4.2-1.6-1-6.4-.2-10.6-.2-14.9-.2-11.1-1.5-4.6-29.8-22.4-9.6-7.3z"/>
  <path id="TG.CE" class="st0" d="M223.2 251l-4.7 4.3-2.2 1.3-2.1-.1-16.6 5.2-2.3.1-1.5-.1-6-1.5H186l-9 1.4-4.1 1.1-.9 1.3-.5 1.4-.3 1.6v1.6l.2 2.5v5l.3 1.4 1.3 3.2-.1.7-.4.9-2 2-1.6 1.9-1.7 1.6-1.1.7-.9.4-2.2.3-4.5 1-2.2-.2-2-.8-.7-.1-1.5-.1-.8-.1-3.8-1.6-.7-2-.4-.6-.7-.3-1.5.2h-1.1l-1.7-.4-.6.2-.5.4-.9 1.9-.4.7-.6.7-2.6 2-.4.4-.5.9-1.2 1.5-.8.4-2.2.4-.7.4-.5.5-.9 3.7-.4.5-4.8 3.6-.7.7-.2.7.1.7.8.9.3.6v.8l-.5 1-.6.5-.8.3H120l-.7.3-2.4 2.5-2.5 1.1-3.3 1.1-.6 1.7-.2 2.1-.4 1.8-1.3.7-1.6-.3-1.2-.4-1.1-.2-1.3.5.7.5-.8 2.3-1.2 1.6-1.3-3.1-1.4-.6-1.5.3-.8 1.3 1 6.7 3.5 8.5 4.8 7.5 4.8 3.7 2 2.7 2.9 3 3.1 2.6 7.9 4.2 2.1 5 1.6 5.2 4.6 4.3.3 1.4v1.6l.3 2-.1 1.4.1.7.5.5 1.4.3.4.5.5 3.3-.9 2.1-1.9 1.3-5.3 2.6-2 1.5-4 4-1 .5-.9.1-.6.5-.1 1.8.5 1.4.9 1 .8 1.2.2 1.9-.7 1.8-.9.8-.6 1 .6 3.3.4 6.4 1.1 5.1.1 2.6-.1 5.1 1.2 9 2.5-.5 6-.6 1.8-.9.7-.7.9-.8 1.9-1.4 1.1-.5 9.6-1.5 1.2-.4.9-.7 1.2-2 .6-.2 1.2.4h1.7l11.5-1.7h1.7l1.4.5 5.1 1.2 1 .4 1.2.6 1.8.5 1.9.2 2.2-.1 10.1-2.3 3.6-1.2 3.7-2.9.3-.7-1-1.4v-.7l.2-.6 1.6-3.8.3-1.5-.1-3.3.6-3 .1-2.6.2-1.6.6-2.2.1-.8v-2.6l-.3-1.5-.3-.6-1.3-1.4-.3-.6-.3-1.4.2-2.3-.1-.7-.5-2.2-.1-1.7-.1-.7-.8-1.9-.2-1.5.1-5.9.1-.7.5-1.2v-1.4l44.1.6-.4-.6.6-3.3v-2.4l.2-1.1 3.9-7.4.4-2.4-.5-1.3-3.1-4.4-.6-1.5-.2-1.6-.3-22.3-.6-44.6-.7-3.7-1-3.3-2.5-4.9-7.5-8.8-9.6-11.3-.6-1.5z"/>
  <path id="TG.SA" class="st1" d="M100.2 149.7l.7.7.9 1.3 1.3 2.2.3.7.1.8v.7l-.2 1.5.2 1.5.4.5.5.4 2.1.4.6.3.9.9.7.3.9.1h1.5l1.9.4h1.8l.6.2.3.4-.1.5-.6 1.1-.1.6.1.7 1 1.7 1.1.7.9.9 1 1.7.5.4.7.2 1-.1 1.4-.5 1.8-.5h1.5l3.8-.4.7.3 1.1.7.7.2 1.2-.4 1.1.3.1-.1.1-1-.1-1.6-1.4-4.5-.1-.7v-.8l.6-1.8.4-1.8.3-1 .6-1.1.4-.9.1-2.6.1-4.2.3-1.7.5-1.5 1.2-2.6 3.5-5.5.6-1.4.3-1.7-.3-1.9-.2-.7v-.6l.6-.6 1.3-.6 3.7.3.7.3.6.4.9 1.8.5.3h.7l1.9-1.5 2.2-1.4.8-.3 2.7.3.6.3.9.8.6.2.6-.1 1.4-1.6.7-.5 1.2-.1h1l3.2.6h.7l1.5-1.1 2.1-3.7-6.9-5.2-20.7-15.5-1-2-.1-3.1 1.7-14 1.8-7.6.1-5.3-1-12.3 1.7-4.6 6.5-7 1.5-2.5.4-1.4.2-3.1.2-1.5 1.9-4-.2-1.5-1-2.8-.3-1.5.4-2.7 3.1-8.4-15.6.3-11.5.3-7.5 1.6-15 5.9 1.5-5.8-1.9-.5.4-.5.4-1.7-.5-.9-23.8-5.5L60 6.1 33-.1l.9 2.2 2 2.1 2.4 1.5 2.2.6 2.2-.3 4.1-1.2H49l4 1.7 1.8 3.2.4 4.2-.3 4.8-.3 1.7-.8.9-1.1.7-1 1.1-.6 1.3-2.6 13.7.1 1.3.6 2.7-.2 1.6-1 1.1-2.4 1.8-1.7 2.4-.9 2.5-.7 5.7-1.1 5.4-.1 2.8 1.2 2.8 1.1 1 1.3.7 1.4.4 2.8.4.8.6.7.8 1.1.8 3.7 1.4 1.1.7.9 1.3 1.4 3 1 1.3 6.3 4.5 1.9 2.2 6.1 12.8.4.5.9-.1.5-.8.3-.9.3-.4 3.2 1.4 1.2.2 1.4-.4 1.1-.6 1.1-.4 1.2.3 1.2 1.3v1.5l-.4 1.4-.2 1.2 1.3 2.5 2.1 2.1 1.2 2.2-1.1 2.8h1.7l5.2-1 1.1.6 2.5 2.3-2.9 2.5-.6 2.1-.4 2.2-.9 1.8.2 4.6-.6 9.6 1.2 3.5 1.5 1.1 1.3.4 1 .9.4 2.8-.1 2.4z"/>
</svg>
